0
SECTION
2
HEADER
9
$INSUNITS
70
4
9
$ACADVER
1
AC1014
9
$HANDSEED
5
FFFF
0
ENDSEC
0
SECTION
2
TABLES
0
TABLE
2
VPORT
5
8
100
AcDbSymbolTable
0
ENDTAB
0
TABLE
2
LTYPE
5
5
100
AcDbSymbolTable
0
LTYPE
5
14
100
AcDbSymbolTableRecord
100
AcDbLinetypeTableRecord
2
BYBLOCK
70
0
0
LTYPE
5
15
100
AcDbSymbolTableRecord
100
AcDbLinetypeTableRecord
2
BYLAYER
70
0
0
ENDTAB
0
TABLE
2
LAYER
5
2
100
AcDbSymbolTable
70
2
0
LAYER
5
50
100
AcDbSymbolTableRecord
100
AcDbLayerTableRecord
2
0
70
0
6
CONTINUOUS
0
ENDTAB
0
TABLE
2
STYLE
5
3
100
AcDbSymbolTable
70
1
0
STYLE
5
11
100
AcDbSymbolTableRecord
100
AcDbTextStyleTableRecord
2
STANDARD
70
0
0
ENDTAB
0
TABLE
2
VIEW
5
6
100
AcDbSymbolTable
70
0
0
ENDTAB
0
TABLE
2
UCS
5
7
100
AcDbSymbolTable
70
0
0
ENDTAB
0
TABLE
2
APPID
5
9
100
AcDbSymbolTable
70
2
0
APPID
5
12
100
AcDbSymbolTableRecord
100
AcDbRegAppTableRecord
2
ACAD
70
0
0
ENDTAB
0
TABLE
2
DIMSTYLE
5
A
100
AcDbSymbolTable
70
1
0
ENDTAB
0
TABLE
2
BLOCK_RECORD
5
1
100
AcDbSymbolTable
70
1
0
BLOCK_RECORD
5
1F
100
AcDbSymbolTableRecord
100
AcDbBlockTableRecord
2
*MODEL_SPACE
0
BLOCK_RECORD
5
1B
100
AcDbSymbolTableRecord
100
AcDbBlockTableRecord
2
*PAPER_SPACE
0
ENDTAB
0
ENDSEC
0
SECTION
2
BLOCKS
0
BLOCK
5
20
100
AcDbEntity
100
AcDbBlockBegin
2
*MODEL_SPACE
0
ENDBLK
5
21
100
AcDbEntity
100
AcDbBlockEnd
0
BLOCK
5
1C
100
AcDbEntity
100
AcDbBlockBegin
2
*PAPER_SPACE
0
ENDBLK
5
1D
100
AcDbEntity
100
AcDbBlockEnd
0
ENDSEC
0
SECTION
2
ENTITIES
0
CIRCLE
5
100
100
AcDbEntity
8
0
100
AcDbCircle
10
4.5000000000000018
20
15.5
30
0
40
1.5000000000000002
210
0
220
0
230
1
0
LWPOLYLINE
5
101
100
AcDbEntity
8
0
100
AcDbPolyline
90
4
70
1
43
0.0
10
41
20
-27
10
41
20
15
10
-0.99999999999999645
20
15
10
-0.99999999999999645
20
-27
0
CIRCLE
5
102
100
AcDbEntity
8
0
100
AcDbCircle
10
20
20
0
30
0
40
11
210
0
220
0
230
1
0
CIRCLE
5
103
100
AcDbEntity
8
0
100
AcDbCircle
10
35.5
20
-15.5
30
0
40
1.5000000000000002
210
0
220
0
230
1
0
LWPOLYLINE
5
104
100
AcDbEntity
8
0
100
AcDbPolyline
90
4
70
1
43
0.0
10
4.5000000000000018
20
-15.5
10
4.5000000000000018
20
15.5
10
35.5
20
15.5
10
35.5
20
-15.5
0
CIRCLE
5
105
100
AcDbEntity
8
0
100
AcDbCircle
10
35.5
20
15.5
30
0
40
1.5000000000000002
210
0
220
0
230
1
0
CIRCLE
5
106
100
AcDbEntity
8
0
100
AcDbCircle
10
4.5000000000000018
20
-15.5
30
0
40
1.5000000000000002
210
0
220
0
230
1
0
LWPOLYLINE
5
107
100
AcDbEntity
8
0
100
AcDbPolyline
90
8
70
1
43
0.0
10
146
20
-27
10
2.0000000000000036
20
-27
42
-0.4142135623730952
10
-0.99999999999999889
20
-24.000000000000004
10
-0.99999999999999867
20
24.000000000000004
42
-0.41421356237309509
10
1.9999999999999929
20
27
10
145.99999999999997
20
27
42
-0.41421356237309509
10
149
20
23.999999999999979
10
149
20
-24.000000000000004
42
-0.4142135623730907
0
LINE
5
108
100
AcDbEntity
8
0
100
AcDbLine
10
20
20
0
30
0
11
149
21
0
31
0
0
CIRCLE
5
109
100
AcDbEntity
8
0
100
AcDbCircle
10
139
20
0
30
0
40
1.4999999999999971
210
0
220
0
230
1
0
CIRCLE
5
110
100
AcDbEntity
8
0
100
AcDbCircle
10
50.500000000000007
20
0
30
0
40
1.5000000000000022
210
0
220
0
230
1
0
CIRCLE
5
111
100
AcDbEntity
8
0
100
AcDbCircle
10
144
20
-22
30
0
40
1.5000000000000018
210
0
220
0
230
1
0
CIRCLE
5
112
100
AcDbEntity
8
0
100
AcDbCircle
10
46
20
22
30
0
40
1.4999999999999987
210
0
220
0
230
1
0
CIRCLE
5
113
100
AcDbEntity
8
0
100
AcDbCircle
10
144
20
22
30
0
40
1.4999999999999989
210
0
220
0
230
1
0
CIRCLE
5
114
100
AcDbEntity
8
0
100
AcDbCircle
10
46
20
-22
30
0
40
1.4999999999999987
210
0
220
0
230
1
0
CIRCLE
5
115
100
AcDbEntity
8
0
100
AcDbCircle
10
134
20
22
30
0
40
1.4999999999999978
210
0
220
0
230
1
0
LINE
5
116
100
AcDbEntity
8
0
100
AcDbLine
10
90
20
-15.999999999999998
30
0
11
58.000000000000007
21
-15.999999999999998
31
0
0
LINE
5
117
100
AcDbEntity
8
0
100
AcDbLine
10
58.000000000000007
20
-15.999999999999998
30
0
11
58.000000000000007
21
15.999999999999998
31
0
0
LINE
5
118
100
AcDbEntity
8
0
100
AcDbLine
10
58.000000000000007
20
15.999999999999998
30
0
11
90
21
15.999999999999998
31
0
0
LINE
5
119
100
AcDbEntity
8
0
100
AcDbLine
10
90
20
15.999999999999998
30
0
11
90
21
-15.999999999999998
31
0
0
LINE
5
120
100
AcDbEntity
8
0
100
AcDbLine
10
90
20
-15.999999999999998
30
0
11
58.000000000000007
21
15.999999999999998
31
0
0
LINE
5
121
100
AcDbEntity
8
0
100
AcDbLine
10
58.000000000000007
20
-15.999999999999998
30
0
11
90
21
15.999999999999998
31
0
0
CIRCLE
5
122
100
AcDbEntity
8
0
100
AcDbCircle
10
58.000000000000007
20
15.999999999999998
30
0
40
1.4999999999999987
210
0
220
0
230
1
0
CIRCLE
5
123
100
AcDbEntity
8
0
100
AcDbCircle
10
90
20
15.999999999999998
30
0
40
1.5000000000000062
210
0
220
0
230
1
0
CIRCLE
5
124
100
AcDbEntity
8
0
100
AcDbCircle
10
90
20
-15.999999999999998
30
0
40
1.4999999999999987
210
0
220
0
230
1
0
CIRCLE
5
125
100
AcDbEntity
8
0
100
AcDbCircle
10
58.000000000000007
20
-15.999999999999998
30
0
40
1.5000000000000002
210
0
220
0
230
1
0
LWPOLYLINE
5
126
100
AcDbEntity
8
0
100
AcDbPolyline
90
8
70
1
43
0.0
10
87.674794331177353
20
-1.0000000000000011
10
90.479153497677004
20
-1.0000000000000027
42
-0.46799588537251269
10
92.446813616802615
20
-3.3582089552238892
42
-0.46293773451044107
10
67.684887458038972
20
-17.654513688639703
42
-0.46799588537250586
10
66.626448654945932
20
-14.771365561851461
10
68.028628238195765
20
-12.34271928232701
42
-0.3522849494188105
10
70.366296324941118
20
-11.436616527708878
42
0.44132751730558795
10
85.721252283866306
20
-2.5714285714285801
42
-0.35228494941881139
0
LWPOLYLINE
5
127
100
AcDbEntity
8
0
100
AcDbPolyline
90
8
70
1
43
0.0
10
90.47915349767699
20
0.99999999999999978
10
87.674794331177353
20
0.99999999999999289
42
-0.35228494941881061
10
85.721252283866306
20
2.5714285714285747
42
0.44132751730558811
10
70.366296324941118
20
11.436616527708875
42
-0.35228494941881305
10
68.028628238195765
20
12.342719282327018
10
66.626448654945946
20
14.771365561851468
42
-0.46799588537250686
10
67.684887458038986
20
17.654513688639696
42
-0.46293773451044107
10
92.446813616802615
20
3.3582089552238834
42
-0.46799588537250336
0
LINE
5
128
100
AcDbEntity
8
0
100
AcDbLine
10
100
20
1
30
0
11
100
21
-1
31
0
0
LWPOLYLINE
5
129
100
AcDbEntity
8
0
100
AcDbPolyline
90
8
70
1
43
0.0
10
64.894397847377064
20
13.771365561851463
10
66.296577430626883
20
11.34271928232701
42
-0.35228494941881283
10
65.912451391192576
20
8.8651879562802982
42
0.44132751730558745
10
65.912451391192576
20
-8.8651879562802876
42
-0.35228494941880917
10
66.296577430626883
20
-11.342719282327005
10
64.894397847377036
20
-13.771365561851454
42
-0.46799588537250369
10
61.868298925158385
20
-14.296304733415786
42
-0.46293773451044035
10
61.86829892515842
20
14.296304733415807
42
-0.46799588537250669
0
ENDSEC
0
SECTION
2
OBJECTS
0
DICTIONARY
5
C
100
AcDbDictionary
3
ACAD_GROUP
350
D
3
ACAD_MLINESTYLE
350
17
0
DICTIONARY
5
D
100
AcDbDictionary
0
DICTIONARY
5
1A
330
C
100
AcDbDictionary
0
DICTIONARY
5
17
100
AcDbDictionary
0
ENDSEC
0
EOF
